STARTFONT 2.1
FONT tekfont0
COMMENT -misc-tektronix-bold-r-normal--25-250-75-75-m-140-iso8859-1
SIZE 25 75 75
FONTBOUNDINGBOX 14 22 0 -5
STARTPROPERTIES 9
FONT_ASCENT 17
FONT_DESCENT 5
DEFAULT_CHAR 32
CAP_HEIGHT 17
X_HEIGHT 11
PIXEL_SIZE 25
POINT_SIZE 250
FOUNDRY_NAME "misc"
FAMILY_NAME "tektronix"
ENDPROPERTIES
CHARS 96
STARTCHAR <unknown>
ENCODING 32
SWIDTH 42 0
DWIDTH 14 0
BBX 0 0 0 0
BITMAP
ENDCHAR
STARTCHAR <unknown>
ENCODING 33
SWIDTH 42 0
DWIDTH 14 0
BBX 2 17 5 0
BITMAP
C0
C0
C0
C0
C0
C0
C0
C0
C0
C0
C0
C0
C0
00
00
C0
C0
ENDCHAR
STARTCHAR <unknown>
ENCODING 34
SWIDTH 42 0
DWIDTH 14 0
BBX 5 8 3 9
BITMAP
D8
D8
D8
D8
D8
D8
D8
D8
ENDCHAR
STARTCHAR <unknown>
ENCODING 35
SWIDTH 42 0
DWIDTH 14 0
BBX 11 17 0 0
BITMAP
1B00
1B00
1B00
1B00
FFE0
FFE0
1B00
1B00
1B00
1B00
1B00
FFE0
FFE0
1B00
1B00
1B00
1B00
ENDCHAR
STARTCHAR <unknown>
ENCODING 36
SWIDTH 42 0
DWIDTH 14 0
BBX 10 17 0 0
BITMAP
1E00
1E00
3F00
7F80
FFC0
DEC0
FE00
7F00
3F80
1FC0
1EC0
DEC0
FFC0
7F80
3F00
1E00
1E00
ENDCHAR
STARTCHAR <unknown>
ENCODING 37
SWIDTH 42 0
DWIDTH 14 0
BBX 11 17 0 0
BITMAP
2000
7000
D860
D8E0
D9C0
D980
7380
2700
0E00
1C80
39C0
3360
7360
E360
C360
01C0
0080
ENDCHAR
STARTCHAR <unknown>
ENCODING 38
SWIDTH 42 0
DWIDTH 14 0
BBX 11 17 0 0
BITMAP
7800
FC00
CC00
CC00
CC00
FC00
7800
7000
F800
DCC0
CEC0
C7C0
C3C0
C1C0
E3E0
7FE0
3F60
ENDCHAR
STARTCHAR <unknown>
ENCODING 39
SWIDTH 42 0
DWIDTH 14 0
BBX 5 7 3 10
BITMAP
18
18
18
38
70
E0
C0
ENDCHAR
STARTCHAR <unknown>
ENCODING 40
SWIDTH 42 0
DWIDTH 14 0
BBX 5 17 3 0
BITMAP
18
38
70
E0
C0
C0
C0
C0
C0
C0
C0
C0
C0
E0
70
38
18
ENDCHAR
STARTCHAR <unknown>
ENCODING 41
SWIDTH 42 0
DWIDTH 14 0
BBX 5 17 3 0
BITMAP
C0
E0
70
38
18
18
18
18
18
18
18
18
18
38
70
E0
C0
ENDCHAR
STARTCHAR <unknown>
ENCODING 42
SWIDTH 42 0
DWIDTH 14 0
BBX 10 15 0 1
BITMAP
0C00
0C00
CCC0
EDC0
7F80
3F00
1E00
0C00
1E00
3F00
7F80
EDC0
CCC0
0C00
0C00
ENDCHAR
STARTCHAR <unknown>
ENCODING 43
SWIDTH 42 0
DWIDTH 14 0
BBX 10 12 0 2
BITMAP
0C00
0C00
0C00
0C00
0C00
FFC0
FFC0
0C00
0C00
0C00
0C00
0C00
ENDCHAR
STARTCHAR <unknown>
ENCODING 44
SWIDTH 42 0
DWIDTH 14 0
BBX 5 7 2 -3
BITMAP
30
78
78
30
30
E0
C0
ENDCHAR
STARTCHAR <unknown>
ENCODING 45
SWIDTH 42 0
DWIDTH 14 0
BBX 11 2 0 7
BITMAP
FFE0
FFE0
ENDCHAR
STARTCHAR <unknown>
ENCODING 46
SWIDTH 42 0
DWIDTH 14 0
BBX 4 4 3 1
BITMAP
60
F0
F0
60
ENDCHAR
STARTCHAR <unknown>
ENCODING 47
SWIDTH 42 0
DWIDTH 14 0
BBX 11 13 0 2
BITMAP
0060
00E0
01C0
0180
0380
0700
0E00
1C00
3800
3000
7000
E000
C000
ENDCHAR
STARTCHAR <unknown>
ENCODING 48
SWIDTH 42 0
DWIDTH 14 0
BBX 11 17 0 0
BITMAP
1F00
3F80
71C0
E0E0
C0E0
C1E0
C3E0
C760
CE60
DC60
F860
F060
E060
E0E0
71C0
3F80
1F00
ENDCHAR
STARTCHAR <unknown>
ENCODING 49
SWIDTH 42 0
DWIDTH 14 0
BBX 8 17 1 0
BITMAP
18
38
78
F8
D8
18
18
18
18
18
18
18
18
18
18
FF
FF
ENDCHAR
STARTCHAR <unknown>
ENCODING 50
SWIDTH 42 0
DWIDTH 14 0
BBX 11 17 0 0
BITMAP
3F80
7FC0
E0E0
C060
0060
0060
00E0
3FC0
7F80
E000
C000
C000
C000
C060
C060
FFE0
FFE0
ENDCHAR
STARTCHAR <unknown>
ENCODING 51
SWIDTH 42 0
DWIDTH 14 0
BBX 11 17 0 0
BITMAP
3F80
7FC0
E0E0
C060
0060
0060
0060
03C0
03C0
0060
0060
0060
0060
C060
E0E0
7FC0
3F80
ENDCHAR
STARTCHAR <unknown>
ENCODING 52
SWIDTH 42 0
DWIDTH 14 0
BBX 11 17 0 0
BITMAP
0180
0380
0380
0780
0F80
0D80
1980
3980
3180
6180
FFE0
FFE0
0180
0180
0180
0180
0180
ENDCHAR
STARTCHAR <unknown>
ENCODING 53
SWIDTH 42 0
DWIDTH 14 0
BBX 11 17 0 0
BITMAP
FFE0
FFE0
C000
C000
C000
C000
C000
FF80
FFC0
00E0
0060
0060
0060
C0E0
E1C0
7F80
3F00
ENDCHAR
STARTCHAR <unknown>
ENCODING 54
SWIDTH 42 0
DWIDTH 14 0
BBX 11 17 0 0
BITMAP
1F80
3FC0
70E0
E060
C000
C000
C000
DF80
FFC0
F0E0
E060
C060
C060
C060
E0E0
7FC0
3F80
ENDCHAR
STARTCHAR <unknown>
ENCODING 55
SWIDTH 42 0
DWIDTH 14 0
BBX 11 17 0 0
BITMAP
FFE0
FFE0
C060
C060
0060
00E0
01C0
0380
0700
0E00
0C00
0C00
0C00
0C00
0C00
0C00
0C00
ENDCHAR
STARTCHAR <unknown>
ENCODING 56
SWIDTH 42 0
DWIDTH 14 0
BBX 11 17 0 0
BITMAP
3F80
7FC0
E0E0
C060
C060
E0E0
71C0
3F80
1F00
3F80
71C0
E0E0
C060
C060
E0E0
7FC0
3F80
ENDCHAR
STARTCHAR <unknown>
ENCODING 57
SWIDTH 42 0
DWIDTH 14 0
BBX 11 17 0 0
BITMAP
3F80
7FC0
E0E0
C060
C060
C060
C060
E060
7060
3FE0
1FE0
0060
0060
C0E0
E1C0
7F80
3F00
ENDCHAR
STARTCHAR <unknown>
ENCODING 58
SWIDTH 42 0
DWIDTH 14 0
BBX 4 11 3 2
BITMAP
60
F0
F0
60
00
00
00
60
F0
F0
60
ENDCHAR
STARTCHAR <unknown>
ENCODING 59
SWIDTH 42 0
DWIDTH 14 0
BBX 5 14 2 -4
BITMAP
30
78
78
30
00
00
00
30
78
78
30
30
E0
C0
ENDCHAR
STARTCHAR <unknown>
ENCODING 60
SWIDTH 42 0
DWIDTH 14 0
BBX 11 17 0 0
BITMAP
00E0
01E0
0380
0700
0E00
1C00
3800
7000
E000
7000
3800
1C00
0E00
0700
0380
01E0
00E0
ENDCHAR
STARTCHAR <unknown>
ENCODING 61
SWIDTH 42 0
DWIDTH 14 0
BBX 11 7 0 4
BITMAP
FFE0
FFE0
0000
0000
0000
FFE0
FFE0
ENDCHAR
STARTCHAR <unknown>
ENCODING 62
SWIDTH 42 0
DWIDTH 14 0
BBX 11 17 0 0
BITMAP
E000
F000
3800
1C00
0E00
0700
0380
01C0
00E0
01C0
0380
0700
0E00
1C00
3800
F000
E000
ENDCHAR
STARTCHAR <unknown>
ENCODING 63
SWIDTH 42 0
DWIDTH 14 0
BBX 11 17 0 0
BITMAP
3F80
7FC0
E0E0
C060
0060
0060
00E0
07C0
0F80
0C00
0C00
0C00
0C00
0000
0000
0C00
0C00
ENDCHAR
STARTCHAR <unknown>
ENCODING 64
SWIDTH 42 0
DWIDTH 14 0
BBX 11 17 0 0
BITMAP
1F80
3FC0
70E0
E660
CF60
DF60
DB60
DB60
DB60
DB60
DFE0
CFE0
C000
E060
70E0
3FC0
1F80
ENDCHAR
STARTCHAR <unknown>
ENCODING 65
SWIDTH 42 0
DWIDTH 14 0
BBX 11 17 0 0
BITMAP
0400
0E00
1F00
3B80
71C0
E0E0
C060
C060
C060
FFE0
FFE0
C060
C060
C060
C060
C060
C060
ENDCHAR
STARTCHAR <unknown>
ENCODING 66
SWIDTH 42 0
DWIDTH 14 0
BBX 11 17 0 0
BITMAP
FF00
FF80
31C0
30E0
3060
30E0
31C0
3F80
3F80
31C0
30E0
3060
3060
30E0
31C0
FF80
FF00
ENDCHAR
STARTCHAR <unknown>
ENCODING 67
SWIDTH 42 0
DWIDTH 14 0
BBX 11 17 0 0
BITMAP
1F00
3F80
71C0
E0E0
C060
C060
C000
C000
C000
C000
C000
C060
C060
E0E0
71C0
3F80
1F00
ENDCHAR
STARTCHAR <unknown>
ENCODING 68
SWIDTH 42 0
DWIDTH 14 0
BBX 11 17 0 0
BITMAP
FF00
FF80
31C0
30E0
3060
3060
3060
3060
3060
3060
3060
3060
3060
30E0
31C0
FF80
FF00
ENDCHAR
STARTCHAR <unknown>
ENCODING 69
SWIDTH 42 0
DWIDTH 14 0
BBX 11 17 0 0
BITMAP
FFE0
FFE0
C000
C000
C000
C000
C000
FF00
FF00
C000
C000
C000
C000
C000
C000
FFE0
FFE0
ENDCHAR
STARTCHAR <unknown>
ENCODING 70
SWIDTH 42 0
DWIDTH 14 0
BBX 11 17 0 0
BITMAP
FFE0
FFE0
C000
C000
C000
C000
C000
FF00
FF00
C000
C000
C000
C000
C000
C000
C000
C000
ENDCHAR
STARTCHAR <unknown>
ENCODING 71
SWIDTH 42 0
DWIDTH 14 0
BBX 11 17 0 0
BITMAP
1F00
3F80
71C0
E0E0
C060
C060
C000
C000
C000
C000
C3E0
C3E0
C060
E0E0
71E0
3FE0
1F60
ENDCHAR
STARTCHAR <unknown>
ENCODING 72
SWIDTH 42 0
DWIDTH 14 0
BBX 11 17 0 0
BITMAP
C060
C060
C060
C060
C060
C060
C060
FFE0
FFE0
C060
C060
C060
C060
C060
C060
C060
C060
ENDCHAR
STARTCHAR <unknown>
ENCODING 73
SWIDTH 42 0
DWIDTH 14 0
BBX 8 17 1 0
BITMAP
FF
FF
18
18
18
18
18
18
18
18
18
18
18
18
18
FF
FF
ENDCHAR
STARTCHAR <unknown>
ENCODING 74
SWIDTH 42 0
DWIDTH 14 0
BBX 11 17 0 0
BITMAP
0FE0
0FE0
0180
0180
0180
0180
0180
0180
0180
0180
0180
0180
C180
C180
E380
7F00
3E00
ENDCHAR
STARTCHAR <unknown>
ENCODING 75
SWIDTH 42 0
DWIDTH 14 0
BBX 11 17 0 0
BITMAP
C0E0
C1E0
C380
C700
CE00
DC00
F800
F000
E000
F000
F800
DC00
CE00
C700
C380
C1E0
C0E0
ENDCHAR
STARTCHAR <unknown>
ENCODING 76
SWIDTH 42 0
DWIDTH 14 0
BBX 11 17 0 0
BITMAP
F000
F000
6000
6000
6000
6000
6000
6000
6000
6000
6000
6000
6000
6060
6060
7FE0
7FE0
ENDCHAR
STARTCHAR <unknown>
ENCODING 77
SWIDTH 42 0
DWIDTH 14 0
BBX 11 17 0 0
BITMAP
E0E0
F1E0
F1E0
DB60
DB60
CE60
CE60
C460
C460
C060
C060
C060
C060
C060
C060
C060
C060
ENDCHAR
STARTCHAR <unknown>
ENCODING 78
SWIDTH 42 0
DWIDTH 14 0
BBX 11 17 0 0
BITMAP
C060
E060
F060
F860
DC60
CC60
C660
C760
C3E0
C1E0
C0E0
C060
C060
C060
C060
C060
C060
ENDCHAR
STARTCHAR <unknown>
ENCODING 79
SWIDTH 42 0
DWIDTH 14 0
BBX 11 17 0 0
BITMAP
1F00
3F80
71C0
E0E0
C060
C060
C060
C060
C060
C060
C060
C060
C060
E0E0
71C0
3F80
1F00
ENDCHAR
STARTCHAR <unknown>
ENCODING 80
SWIDTH 42 0
DWIDTH 14 0
BBX 11 17 0 0
BITMAP
FF80
FFC0
C0E0
C060
C060
C060
C0E0
FFC0
FF80
C000
C000
C000
C000
C000
C000
C000
C000
ENDCHAR
STARTCHAR <unknown>
ENCODING 81
SWIDTH 42 0
DWIDTH 14 0
BBX 11 17 0 0
BITMAP
1F00
3F80
71C0
E0E0
C060
C060
C060
C060
C060
C060
C060
C360
C3E0
E1E0
71C0
3FE0
1F60
ENDCHAR
STARTCHAR <unknown>
ENCODING 82
SWIDTH 42 0
DWIDTH 14 0
BBX 11 17 0 0
BITMAP
FF80
FFC0
C0E0
C060
C060
C060
C0E0
FFC0
FF80
F800
DC00
CE00
C700
C380
C1C0
C0E0
C060
ENDCHAR
STARTCHAR <unknown>
ENCODING 83
SWIDTH 42 0
DWIDTH 14 0
BBX 11 17 0 0
BITMAP
1F80
3FC0
70E0
E060
C000
C000
E000
7F80
3FC0
00E0
0060
0060
0060
C0E0
E1C0
7F80
3F00
ENDCHAR
STARTCHAR <unknown>
ENCODING 84
SWIDTH 42 0
DWIDTH 14 0
BBX 10 17 0 0
BITMAP
FFC0
FFC0
CCC0
0C00
0C00
0C00
0C00
0C00
0C00
0C00
0C00
0C00
0C00
0C00
0C00
0C00
0C00
ENDCHAR
STARTCHAR <unknown>
ENCODING 85
SWIDTH 42 0
DWIDTH 14 0
BBX 11 17 0 0
BITMAP
C060
C060
C060
C060
C060
C060
C060
C060
C060
C060
C060
C060
C060
C060
E0E0
7FC0
3F80
ENDCHAR
STARTCHAR <unknown>
ENCODING 86
SWIDTH 42 0
DWIDTH 14 0
BBX 11 17 0 0
BITMAP
C060
C060
C060
C060
C060
C060
C060
C060
C060
C060
C060
E0E0
71C0
3B80
1F00
0E00
0400
ENDCHAR
STARTCHAR <unknown>
ENCODING 87
SWIDTH 42 0
DWIDTH 14 0
BBX 11 17 0 0
BITMAP
C060
C060
C060
C060
C060
C060
C060
C060
C060
C060
C460
CE60
CE60
CE60
FFE0
FBE0
71C0
ENDCHAR
STARTCHAR <unknown>
ENCODING 88
SWIDTH 42 0
DWIDTH 14 0
BBX 11 17 0 0
BITMAP
C060
C060
C060
E0E0
71C0
3180
3B80
1F00
0E00
1F00
3B80
3180
71C0
E0E0
C060
C060
C060
ENDCHAR
STARTCHAR <unknown>
ENCODING 89
SWIDTH 42 0
DWIDTH 14 0
BBX 10 17 0 0
BITMAP
C0C0
C0C0
C0C0
C0C0
C0C0
C0C0
E1C0
7380
3F00
1E00
0C00
0C00
0C00
0C00
0C00
0C00
0C00
ENDCHAR
STARTCHAR <unknown>
ENCODING 90
SWIDTH 42 0
DWIDTH 14 0
BBX 11 17 0 0
BITMAP
FFE0
FFE0
C060
C0E0
01C0
0180
0380
0700
0E00
1C00
3800
3000
7000
E060
C060
FFE0
FFE0
ENDCHAR
STARTCHAR <unknown>
ENCODING 91
SWIDTH 42 0
DWIDTH 14 0
BBX 11 17 0 0
BITMAP
FFE0
FFE0
E000
E000
E000
E000
E000
E000
E000
E000
E000
E000
E000
E000
E000
FFE0
FFE0
ENDCHAR
STARTCHAR <unknown>
ENCODING 92
SWIDTH 42 0
DWIDTH 14 0
BBX 11 13 0 2
BITMAP
C000
E000
7000
3000
3800
1C00
0E00
0700
0380
0180
01C0
00E0
0060
ENDCHAR
STARTCHAR <unknown>
ENCODING 93
SWIDTH 42 0
DWIDTH 14 0
BBX 11 17 0 0
BITMAP
FFE0
FFE0
00E0
00E0
00E0
00E0
00E0
00E0
00E0
00E0
00E0
00E0
00E0
00E0
00E0
FFE0
FFE0
ENDCHAR
STARTCHAR <unknown>
ENCODING 94
SWIDTH 42 0
DWIDTH 14 0
BBX 11 7 0 10
BITMAP
0400
0E00
1F00
3B80
71C0
E0E0
C060
ENDCHAR
STARTCHAR <unknown>
ENCODING 95
SWIDTH 42 0
DWIDTH 14 0
BBX 14 2 0 -3
BITMAP
FFFC
FFFC
ENDCHAR
STARTCHAR <unknown>
ENCODING 96
SWIDTH 42 0
DWIDTH 14 0
BBX 5 7 3 10
BITMAP
C0
C0
C0
E0
70
38
18
ENDCHAR
STARTCHAR <unknown>
ENCODING 97
SWIDTH 42 0
DWIDTH 14 0
BBX 11 11 0 0
BITMAP
FE00
FF00
0380
3F80
7F80
E180
C180
C180
E380
7FE0
3CE0
ENDCHAR
STARTCHAR <unknown>
ENCODING 98
SWIDTH 42 0
DWIDTH 14 0
BBX 11 17 0 0
BITMAP
F000
F000
3000
3000
3000
3000
3780
3FC0
38E0
3060
3060
3060
3060
3060
38E0
FFC0
E780
ENDCHAR
STARTCHAR <unknown>
ENCODING 99
SWIDTH 42 0
DWIDTH 14 0
BBX 11 11 0 0
BITMAP
3F80
7F80
E000
C000
C000
C000
C000
C060
E0E0
7FC0
3F80
ENDCHAR
STARTCHAR <unknown>
ENCODING 100
SWIDTH 42 0
DWIDTH 14 0
BBX 11 17 0 0
BITMAP
01E0
01E0
0180
0180
0180
0180
3D80
7F80
E380
C180
C180
C180
C180
C180
E380
7FE0
3CE0
ENDCHAR
STARTCHAR <unknown>
ENCODING 101
SWIDTH 42 0
DWIDTH 14 0
BBX 11 11 0 0
BITMAP
3F80
7FC0
E0E0
C060
FFE0
FFE0
C000
C060
E0E0
7FC0
3F80
ENDCHAR
STARTCHAR <unknown>
ENCODING 102
SWIDTH 42 0
DWIDTH 14 0
BBX 8 17 1 0
BITMAP
1E
3F
33
30
30
30
30
7C
7C
30
30
30
30
30
30
FC
FC
ENDCHAR
STARTCHAR <unknown>
ENCODING 103
SWIDTH 42 0
DWIDTH 14 0
BBX 11 16 0 -5
BITMAP
3CE0
7FE0
E380
C180
C180
C180
C180
C180
E380
7F80
3D80
0180
C180
E380
7F00
3E00
ENDCHAR
STARTCHAR <unknown>
ENCODING 104
SWIDTH 42 0
DWIDTH 14 0
BBX 11 17 0 0
BITMAP
F000
F000
3000
3000
3000
3000
3700
3F80
39C0
30C0
30C0
30C0
30C0
30C0
30C0
F0E0
F0E0
ENDCHAR
STARTCHAR <unknown>
ENCODING 105
SWIDTH 42 0
DWIDTH 14 0
BBX 8 15 1 0
BITMAP
18
18
00
00
78
78
18
18
18
18
18
18
18
FF
FF
ENDCHAR
STARTCHAR <unknown>
ENCODING 106
SWIDTH 42 0
DWIDTH 14 0
BBX 8 16 1 -5
BITMAP
0F
0F
03
03
03
03
03
03
03
03
03
03
C3
E7
7E
3C
ENDCHAR
STARTCHAR <unknown>
ENCODING 107
SWIDTH 42 0
DWIDTH 14 0
BBX 11 17 0 0
BITMAP
F000
F000
3000
3000
3000
3000
30E0
31E0
3380
3700
3E00
3C00
3E00
3700
3380
F1E0
F0E0
ENDCHAR
STARTCHAR <unknown>
ENCODING 108
SWIDTH 42 0
DWIDTH 14 0
BBX 6 17 3 0
BITMAP
F0
F0
30
30
30
30
30
30
30
30
30
30
30
30
30
3C
1C
ENDCHAR
STARTCHAR <unknown>
ENCODING 109
SWIDTH 42 0
DWIDTH 14 0
BBX 10 11 0 0
BITMAP
DDC0
FFC0
FFC0
EEC0
CCC0
CCC0
CCC0
CCC0
CCC0
CCC0
CCC0
ENDCHAR
STARTCHAR <unknown>
ENCODING 110
SWIDTH 42 0
DWIDTH 14 0
BBX 11 11 0 0
BITMAP
E700
FF80
39C0
30C0
30C0
30C0
30C0
30C0
30C0
F0E0
F0E0
ENDCHAR
STARTCHAR <unknown>
ENCODING 111
SWIDTH 42 0
DWIDTH 14 0
BBX 11 11 0 0
BITMAP
1F00
3F80
71C0
E0E0
C060
C060
C060
E0E0
71C0
3F80
1F00
ENDCHAR
STARTCHAR <unknown>
ENCODING 112
SWIDTH 42 0
DWIDTH 14 0
BBX 11 16 0 -5
BITMAP
E780
FFC0
38E0
3060
3060
3060
3060
3060
38E0
3FC0
3780
3000
3000
3000
F000
F000
ENDCHAR
STARTCHAR <unknown>
ENCODING 113
SWIDTH 42 0
DWIDTH 14 0
BBX 11 16 0 -5
BITMAP
3CE0
7FE0
E380
C180
C180
C180
C180
C180
E380
7F80
3D80
0180
0180
0180
01E0
01E0
ENDCHAR
STARTCHAR <unknown>
ENCODING 114
SWIDTH 42 0
DWIDTH 14 0
BBX 11 11 0 0
BITMAP
E3C0
F7E0
3E60
3C00
3800
3000
3000
3000
3000
FC00
FC00
ENDCHAR
STARTCHAR <unknown>
ENCODING 115
SWIDTH 42 0
DWIDTH 14 0
BBX 11 11 0 0
BITMAP
1F80
3F80
7000
7000
3F80
1FC0
00E0
C060
E0E0
7FC0
3F80
ENDCHAR
STARTCHAR <unknown>
ENCODING 116
SWIDTH 42 0
DWIDTH 14 0
BBX 11 16 0 0
BITMAP
7800
7800
1800
1800
1800
FF00
FF00
1800
1800
1800
1800
1800
1860
1CE0
0FC0
0780
ENDCHAR
STARTCHAR <unknown>
ENCODING 117
SWIDTH 42 0
DWIDTH 14 0
BBX 12 11 0 0
BITMAP
E0C0
E0C0
60C0
60C0
60C0
60C0
60C0
60C0
71C0
3FF0
1E70
ENDCHAR
STARTCHAR <unknown>
ENCODING 118
SWIDTH 42 0
DWIDTH 14 0
BBX 11 11 0 0
BITMAP
C060
C060
C060
C060
C060
E0E0
71C0
3B80
1F00
0E00
0400
ENDCHAR
STARTCHAR <unknown>
ENCODING 119
SWIDTH 42 0
DWIDTH 14 0
BBX 11 11 0 0
BITMAP
C060
C060
C060
C060
C060
C460
CE60
CE60
FFE0
7BC0
3180
ENDCHAR
STARTCHAR <unknown>
ENCODING 120
SWIDTH 42 0
DWIDTH 14 0
BBX 11 11 0 0
BITMAP
E0E0
F1E0
3B80
1F00
0E00
0E00
0E00
1F00
3B80
F1E0
E0E0
ENDCHAR
STARTCHAR <unknown>
ENCODING 121
SWIDTH 42 0
DWIDTH 14 0
BBX 11 16 0 -5
BITMAP
C1E0
C1E0
C180
C180
C180
C180
C180
C180
E380
7F80
3D80
0180
C180
E380
7F00
3E00
ENDCHAR
STARTCHAR <unknown>
ENCODING 122
SWIDTH 42 0
DWIDTH 14 0
BBX 11 11 0 0
BITMAP
FFE0
FFE0
C1C0
C380
0700
0E00
1C00
3860
7060
FFE0
FFE0
ENDCHAR
STARTCHAR <unknown>
ENCODING 123
SWIDTH 42 0
DWIDTH 14 0
BBX 6 17 3 0
BITMAP
0C
1C
38
30
30
30
30
70
E0
70
30
30
30
30
38
1C
0C
ENDCHAR
STARTCHAR <unknown>
ENCODING 124
SWIDTH 42 0
DWIDTH 14 0
BBX 2 22 4 -5
BITMAP
C0
C0
C0
C0
C0
C0
C0
C0
C0
C0
C0
C0
C0
C0
C0
C0
C0
C0
C0
C0
C0
C0
ENDCHAR
STARTCHAR <unknown>
ENCODING 125
SWIDTH 42 0
DWIDTH 14 0
BBX 6 17 2 0
BITMAP
C0
E0
70
30
30
30
30
38
1C
38
30
30
30
30
70
E0
C0
ENDCHAR
STARTCHAR <unknown>
ENCODING 126
SWIDTH 42 0
DWIDTH 14 0
BBX 11 5 0 12
BITMAP
3800
7C60
EEE0
C7C0
0380
ENDCHAR
STARTCHAR <unknown>
ENCODING 127
SWIDTH 42 0
DWIDTH 14 0
BBX 14 22 0 -5
BITMAP
CCCC
CCCC
3330
3330
CCCC
CCCC
3330
3330
CCCC
CCCC
3330
3330
CCCC
CCCC
3330
3330
CCCC
CCCC
3330
3330
CCCC
CCCC
ENDCHAR
ENDFONT
